<svg width="14" height="14" viewBox="0 0 14 14" fill="none" xmlns="http://www.w3.org/2000/svg">
<path fill-rule="evenodd" clip-rule="evenodd" d="M11.2 0C11.4945 0 11.7333 0.238784 11.7333 0.533333V13.3333C11.7333 13.6278 11.4945 13.8667 11.2 13.8667C10.9055 13.8667 10.6667 13.6278 10.6667 13.3333V0.533333C10.6667 0.238784 10.9055 0 11.2 0ZM9.06667 2.13333C9.36122 2.13333 9.6 2.37212 9.6 2.66667V13.3333C9.6 13.6278 9.36122 13.8667 9.06667 13.8667C8.77212 13.8667 8.53333 13.6278 8.53333 13.3333V2.66667C8.53333 2.37212 8.77212 2.13333 9.06667 2.13333ZM13.3333 2.13333C13.6278 2.13333 13.8667 2.37212 13.8667 2.66667V13.3333C13.8667 13.6278 13.6278 13.8667 13.3333 13.8667C13.0388 13.8667 12.8 13.6278 12.8 13.3333V2.66667C12.8 2.37212 13.0388 2.13333 13.3333 2.13333ZM4.8 3.2C5.09455 3.2 5.33333 3.43878 5.33333 3.73333V13.3333C5.33333 13.6278 5.09455 13.8667 4.8 13.8667C4.50545 13.8667 4.26667 13.6278 4.26667 13.3333V3.73333C4.26667 3.43878 4.50545 3.2 4.8 3.2ZM0.533333 4.26667C0.827883 4.26667 1.06667 4.50545 1.06667 4.8V13.3333C1.06667 13.6278 0.827883 13.8667 0.533333 13.8667C0.238784 13.8667 0 13.6278 0 13.3333V4.8C0 4.50545 0.238784 4.26667 0.533333 4.26667ZM6.93333 4.26667C7.22788 4.26667 7.46667 4.50545 7.46667 4.8V13.3333C7.46667 13.6278 7.22788 13.8667 6.93333 13.8667C6.63878 13.8667 6.4 13.6278 6.4 13.3333V4.8C6.4 4.50545 6.63878 4.26667 6.93333 4.26667ZM2.66667 6.4C2.96122 6.4 3.2 6.63878 3.2 6.93333V13.3333C3.2 13.6278 2.96122 13.8667 2.66667 13.8667C2.37212 13.8667 2.13333 13.6278 2.13333 13.3333V6.93333C2.13333 6.63878 2.37212 6.4 2.66667 6.4Z" fill="#0F172A"/>
</svg>
